<svg
  xmlns="http://www.w3.org/2000/svg"
  width="40"
  height="40"
  viewBox="0 0 40 40"
>
  <path
    d="M20 0c11.049 0 20 8.951 20 20s-8.951 20-20 20S0 31.049 0 20 8.951 0 20 0zm4.249 8.898H15.76a6.867 6.867 0 0 0-6.854 6.52l-.008.342v8.489a6.867 6.867 0 0 0 6.52 6.854l.342.008h8.489a6.867 6.867 0 0 0 6.854-6.52l.008-.342V15.76a6.867 6.867 0 0 0-6.52-6.854l-.342-.008zm0 2.47a4.4 4.4 0 0 1 4.381 4.114l.01.278v8.489a4.395 4.395 0 0 1-4.114 4.382l-.277.009H15.76a4.395 4.395 0 0 1-4.382-4.114l-.01-.277V15.76a4.395 4.395 0 0 1 4.115-4.382l.277-.01h8.489zM20 14.32A5.69 5.69 0 0 0 14.32 20 5.69 5.69 0 0 0 20 25.68 5.69 5.69 0 0 0 25.68 20 5.69 5.69 0 0 0 20 14.32zm.045 2.232a3.45 3.45 0 1 1-.082 6.898 3.45 3.45 0 0 1 .082-6.898zm5.92-3.52a.956.956 0 0 0-.96.96c0 .532.426.96.96.96.533 0 .96-.428.96-.96a.956.956 0 0 0-.96-.96z"
    fill="currentColor"
    fill-rule="nonzero"
  ></path>
</svg>