<svg
  xmlns="http://www.w3.org/2000/svg"
  width="40"
  height="40"
  viewBox="0 0 40 40"
>
  <path
    d="M20 0c11.049 0 20 8.951 20 20s-8.951 20-20 20S0 31.049 0 20 8.951 0 20 0zm7.076 12.267H12.924a4.045 4.045 0 0 0-4.026 3.77l-.01.265v7.405a4.045 4.045 0 0 0 3.772 4.027l.264.008h14.152a4.045 4.045 0 0 0 4.026-3.77l.01-.265v-7.405a4.045 4.045 0 0 0-3.772-4.027l-.264-.008zm-9.903 3.529 3.45 2.133 3.448 2.124-6.898 4.267v-8.524z"
    fill="currentColor"
    fill-rule="nonzero"
  ></path>
</svg>