<svg
  xmlns="http://www.w3.org/2000/svg"
  width="40"
  height="40"
  viewBox="0 0 40 40"
>
  <path
    d="M20 0c11.049 0 20 8.951 20 20s-8.951 20-20 20S0 31.049 0 20 8.951 0 20 0zm4.09 16.918c-1.191.013-2.14.478-2.86 1.371l-.307.42-.058-.017v-1.483H17.59v11.066h3.427l.002-5.506c.001-.332.021-.666.058-.996.124-1.096.68-1.699 1.733-1.818 1.02-.118 1.729.281 1.957 1.33.067.31.116.63.119.946l.01 2.894.003 3.147h3.424l.007-.163c.001-2.132.009-4.264-.004-6.396-.005-.746-.081-1.49-.29-2.211-.297-1.035-.869-1.842-1.9-2.257-.657-.266-1.344-.336-2.045-.327zm-11.877.271c-.216-.002-.279.049-.277.273l.005 5.276v5.53h3.422V17.195h-.255c-.965 0-1.93.007-2.895-.006zm1.465-5.522a2.013 2.013 0 0 0-2.011 2c.005 1.082.923 1.997 2.002 1.993a2.009 2.009 0 0 0 1.993-1.995 1.998 1.998 0 0 0-1.984-1.998z"
    fill="currentColor"
    fill-rule="nonzero"
  ></path>
</svg>