<svg width="40" height="40" viewBox="0 0 24 24" version="1.1"><title>icons / social / tiktok</title><g id="web-v1.7" stroke="none" stroke-width="1" fill="none" fill-rule="evenodd"><g id="website-landing-desktop" transform="translate(-306.000000, -10459.000000)" fill="#191E30" fill-rule="nonzero"><g id="FOOTER" transform="translate(0.000000, 10171.000000)"><g id="CONTENT" transform="translate(130.000000, 96.000000)"><g id="SOCIAL-MEDIA" transform="translate(0.000000, 160.000000)"><g id="icons-/-social-/-tiktok" transform="translate(176.000000, 32.000000)"><path d="M12,0 C18.6293333,0 24,5.37066667 24,12 C24,18.6293333 18.6293333,24 12,24 C5.37066667,24 0,18.6293333 0,12 C0,5.37066667 5.37066667,0 12,0 Z M14.7359247,4.67079218 L12.5057884,4.67079218 L12.5057884,10.7645921 L12.5031166,14.102449 C12.5031166,14.9948242 11.9220041,15.7514728 11.1164619,16.0175822 C10.882681,16.0947967 10.6301976,16.1314001 10.3672943,16.1169725 C10.0317185,16.0985372 9.71724976,15.9972767 9.44392648,15.8337636 C8.86227959,15.4858977 8.4679246,14.8548228 8.45723747,14.1329074 C8.44040524,13.0046139 9.35255154,12.0847194 10.4800435,12.0847194 C10.7026029,12.0847194 10.9163454,12.1210557 11.1164619,12.1870487 L11.1164619,9.92271363 C10.9053911,9.89145378 10.6905799,9.87515591 10.473364,9.87515591 C9.239268,9.87515591 8.08505827,10.388138 7.26001205,11.3123073 C6.63641818,12.0107111 6.26236873,12.9017503 6.20465825,13.8360724 C6.12904682,15.063489 6.57817334,16.2302561 7.4491742,17.0911041 C7.57715255,17.2174794 7.71154317,17.3347706 7.85207889,17.4429778 C8.5988419,18.0176781 9.51178974,18.3292078 10.473364,18.3292078 C10.6905799,18.3292078 10.9053911,18.3131771 11.1164619,18.2819173 C12.0147149,18.1488626 12.8435016,17.7376753 13.4975538,17.0911041 C14.3012258,16.2967834 14.7452759,15.2422312 14.7500851,14.1198156 L14.7385964,9.13533953 C15.1219971,9.43110578 15.5411997,9.67584099 15.9911277,9.86580467 C16.6908674,10.1610366 17.4328212,10.3106563 18.196448,10.3103892 L18.196448,8.0901385 C17.4093095,8.09067286 16.6889971,7.83204438 16.1105564,7.39574242 C15.447153,6.89558487 14.9705071,6.16191359 14.8021848,5.31629465 C14.760505,5.10736132 14.7380621,4.89174853 14.7359247,4.67079218 Z" id="Combined-Shape"></path></g></g></g></g></g></g></svg>