<svg width="1440" height="970" viewBox="0 0 1440 970" fill="none" xmlns="http://www.w3.org/2000/svg">
<rect width="1440" height="970" fill="#CACDC1" fill-opacity="0.1"/>
<mask id="mask0_0_13906" style="mask-type:alpha" maskUnits="userSpaceOnUse" x="0" y="0" width="1440" height="970">
<rect width="1440" height="970" fill="white"/>
</mask>
<g mask="url(#mask0_0_13906)">
<g opacity="0.4" filter="url(#filter0_f_0_13906)">
<path fill-rule="evenodd" clip-rule="evenodd" d="M-266.96 1140.07C-372.347 974.255 -395.487 764.606 -328.855 579.184C-309.946 526.602 -284.351 476.924 -252.702 431.477C-220.982 385.863 -183.422 344.662 -141.057 308.906C-98.7228 273.176 -51.8305 243.099 -1.66203 219.599C48.3001 196.166 101.415 179.414 156.15 169.84C349.24 136.004 550.543 195.336 694.59 328.522C711.831 344.648 712.955 371.351 697.21 388.62C681.435 405.915 654.727 407.014 637.497 391.091C512.694 275.738 338.245 224.313 170.865 253.645C123.43 261.941 77.4404 276.448 34.1959 296.706C-9.29083 317.114 -49.9658 343.164 -86.6491 374.125C-123.363 405.112 -155.932 440.879 -183.434 480.385C-210.808 519.73 -232.998 562.766 -249.357 608.313C-307.142 769.019 -287.084 950.751 -195.784 1094.38C-183.186 1114.21 -188.931 1140.5 -208.573 1153.1C-226.669 1164.71 -250.219 1160.7 -263.678 1144.57C-264.847 1143.17 -265.95 1141.66 -266.96 1140.07Z" fill="#ECB13A"/>
</g>
<g opacity="0.203108" filter="url(#filter1_f_0_13906)">
<path fill-rule="evenodd" clip-rule="evenodd" d="M2413.58 -1653.96C2715.16 -1337.03 2857.92 -892.122 2795.49 -463.669C2777.76 -342.163 2744.26 -224.265 2695.77 -113.103C2647.21 -1.55052 2584.04 102.784 2508.06 197.252C2432.13 291.651 2343.83 375.632 2245.52 446.68C2147.64 517.499 2039.97 575.109 1925.62 617.821C1522.25 768.625 1059.92 720.881 689.001 490.156C644.524 462.14 630.29 404.739 656.77 361.007C683.305 317.207 740.681 304.105 785.045 331.687C1106.39 531.502 1507.05 572.895 1856.71 442.166C1955.81 405.154 2049.03 355.267 2133.77 294.023C2218.96 232.355 2295.58 159.593 2361.37 77.7949C2427.22 -4.07248 2481.97 -94.6327 2524.1 -191.259C2566.02 -287.485 2595.08 -389.627 2610.4 -494.868C2664.58 -866.222 2540.83 -1251.89 2279.57 -1526.41C2243.51 -1564.32 2244.34 -1623.58 2281.33 -1658.76C2315.41 -1691.17 2368.2 -1691.94 2404.48 -1662.39C2407.63 -1659.83 2410.69 -1656.99 2413.58 -1653.96Z" fill="#008768"/>
</g>
</g>
<defs>
<filter id="filter0_f_0_13906" x="-502.256" y="24.5898" width="1346.48" height="1271.09" filterUnits="userSpaceOnUse" color-interpolation-filters="sRGB">
<feFlood flood-opacity="0" result="BackgroundImageFix"/>
<feBlend mode="normal" in="SourceGraphic" in2="BackgroundImageFix" result="shape"/>
<feGaussianBlur stdDeviation="67.957" result="effect1_foregroundBlur_0_13906"/>
</filter>
<filter id="filter1_f_0_13906" x="507.555" y="-1819.76" width="2438.27" height="2660.27" filterUnits="userSpaceOnUse" color-interpolation-filters="sRGB">
<feFlood flood-opacity="0" result="BackgroundImageFix"/>
<feBlend mode="normal" in="SourceGraphic" in2="BackgroundImageFix" result="shape"/>
<feGaussianBlur stdDeviation="67.957" result="effect1_foregroundBlur_0_13906"/>
</filter>
</defs>
</svg>
